# xmcd CD database file
#
# Track frame offsets:
#	150
#	12922
#	23475
#	36075
#	45895
#	51947
#	63060
#	75335
#	82617
#	94192
#	102705
#	111527
#
# Disc length: 1657 seconds
#
# Revision: 1
# Processed by: cddbd v1.5.1PL2 Copyright (c) Steve Scherf et al.
# Submitted via: CDex 1.51
#
DISCID=8106770c
DTITLE=Jimmy Wakely - Cowboy Singers
DYEAR=1998
DGENRE=Country
TTITLE0=too late
TTITLE1=for the sake of days gone by
TTITLE2=milk cow blues
TTITLE3=a melody from the sky
TTITLE4=oklahoma city blues
TTITLE5=locked in my heart
TTITLE6=I'm sorry I met you
TTITLE7=don't lay the blame on me
TTITLE8=Take me Back to my boots and saddle
TTITLE9=I'm gonna marry Mary
TTITLE10=don't laugh at my tears
TTITLE11=in the Hills of Wyoming
EXTD=YEAR: 1998
EXTT0=
EXTT1=
EXTT2=
EXTT3=
EXTT4=
EXTT5=
EXTT6=
EXTT7=
EXTT8=
EXTT9=
EXTT10=
EXTT11=
PLAYORDER=
